<?xml version="1.0" standalone="no"?>
<!DOCTYPE svg PUBLIC "-//W3C//DTD SVG 20010904//EN"
 "http://www.w3.org/TR/2001/REC-SVG-20010904/DTD/svg10.dtd">
<svg version="1.0" xmlns="http://www.w3.org/2000/svg"
 width="256.000000pt" height="256.000000pt" viewBox="0 0 256.000000 256.000000"
 preserveAspectRatio="xMidYMid meet">
<metadata>
Created by potrace 1.14, written by Peter Selinger 2001-2017
</metadata>
<g transform="translate(0.000000,256.000000) scale(0.100000,-0.100000)"
fill="#000000" stroke="none">
<path d="M1020 2499 c-520 -50 -748 -241 -824 -690 -38 -221 -38 -655 -2 -883
20 -122 68 -269 111 -341 185 -306 429 -405 1005 -405 576 0 820 99 1005 405
76 127 122 335 135 610 14 301 -10 594 -61 770 -57 192 -181 347 -340 424 -96
46 -228 83 -364 101 -116 15 -542 21 -665 9z m148 -425 c101 -20 222 -81 297
-148 l60 -54 -100 5 c-119 7 -190 -6 -277 -49 -85 -42 -195 -152 -238 -238
-18 -36 -34 -66 -35 -68 -1 -2 -39 -5 -84 -7 -85 -4 -196 -34 -243 -66 -14
-11 -32 -19 -40 -19 -8 0 -25 -11 -37 -24 -39 -41 -58 -39 -65 6 -14 86 18
229 76 341 128 246 408 378 686 321z m347 -230 c85 -23 217 -122 261 -195 5
-9 35 -21 67 -27 251 -50 423 -296 387 -554 -12 -84 -61 -193 -114 -255 -51
-58 -147 -120 -225 -143 -64 -20 -89 -20 -636 -18 l-570 3 -65 31 c-261 124
-316 479 -104 673 59 54 120 86 196 102 50 11 156 8 189 -6 13 -5 17 2 22 34
13 102 116 251 212 307 116 67 249 85 380 48z"/>
</g>
</svg>
